<svg width="264" height="226" viewBox="0 0 264 226" fill="none" xmlns="http://www.w3.org/2000/svg">
<circle cx="225.5" cy="159.5" r="19.5" fill="#FC7613"/>
<rect x="98.8857" y="171.695" width="99" height="16" rx="5" transform="rotate(7.50674 98.8857 171.695)" fill="#3A4863"/>
<rect x="200.924" y="47.9649" width="14" height="144" rx="5" transform="rotate(7.50674 200.924 47.9649)" fill="#3A4863"/>
<path fill-rule="evenodd" clip-rule="evenodd" d="M109.398 45.9907C110.26 39.4476 110.691 36.176 112.992 34.4112C115.292 32.6464 118.564 33.0775 125.107 33.9397L196.49 43.346C203.033 44.2082 206.304 44.6393 208.069 46.9398C209.834 49.2403 209.403 52.5119 208.541 59.055L192.602 180.009C191.74 186.552 191.309 189.824 189.008 191.589C186.708 193.354 183.436 192.923 176.893 192.06L105.51 182.654C98.9673 181.792 95.6957 181.361 93.9309 179.06C92.1661 176.76 92.5972 173.488 93.4594 166.945L109.398 45.9907ZM136.407 50.2849C136.443 50.0111 136.695 49.8184 136.968 49.8545L170.016 54.2092C170.29 54.2453 170.482 54.4965 170.446 54.7703C170.41 55.044 170.159 55.2367 169.885 55.2007L136.838 50.8459C136.564 50.8098 136.371 50.5586 136.407 50.2849ZM136.021 177.111C140.584 177.712 144.771 174.501 145.372 169.938C145.973 165.375 142.762 161.189 138.199 160.587C133.636 159.986 129.45 163.198 128.848 167.76C128.247 172.323 131.459 176.51 136.021 177.111Z" fill="#60718B"/>
<rect x="119.128" y="56.3506" width="72" height="95" rx="5" transform="rotate(7.50674 119.128 56.3506)" fill="#182029"/>
<path d="M213.262 69.3139C229.475 64.5254 258.044 70.7169 242.609 133.79" stroke="#AAB7C7" stroke-width="2" stroke-linecap="round" stroke-dasharray="1 6"/>
<path d="M26.8334 74.8122C25.7555 73.265 25.2166 72.4915 25.3624 71.676C25.5082 70.8605 26.2818 70.3215 27.8289 69.2437L82.8034 30.9447C84.3505 29.8668 85.1241 29.3279 85.9396 29.4737C86.7551 29.6195 87.2941 30.3931 88.3719 31.9402L112.38 66.4018C113.458 67.949 113.997 68.7226 113.851 69.5381C113.705 70.3536 112.932 70.8925 111.385 71.9704L56.4102 110.269C54.8631 111.347 54.0895 111.886 53.274 111.74C52.4585 111.595 51.9196 110.821 50.8417 109.274L26.8334 74.8122Z" fill="#FC7613"/>
<circle cx="56.2396" cy="95.1541" r="4.16667" transform="rotate(-34.8637 56.2396 95.1541)" fill="#FFD2B1"/>
<rect x="31.6924" y="81.7866" width="75" height="8.33333" transform="rotate(-34.8637 31.6924 81.7866)" fill="#FFD2B1"/>
<path d="M36.5 96.5C15.0004 115 42.5 164 83.5 132" stroke="#AAB7C7" stroke-width="2" stroke-dasharray="1 6"/>
<path d="M173.064 115.323L161.778 113.829C161.741 99.6422 162.054 75.5734 172.013 72.6363C180.289 73.7313 176.162 101.55 173.064 115.323Z" fill="#2B333E"/>
<path d="M121.997 103.248C119.253 118.202 114.712 122.14 112.785 122.239L138.179 125.599C134.565 133.63 138.412 148.724 141.858 148.423C156.381 147.153 160.917 120.098 163.545 100.235C165.647 84.3456 170.673 75.2955 172.923 72.7567L133.421 67.5305C129.659 67.0328 126.727 72.3178 125.731 75.0225C125.63 78.2002 124.741 88.2939 121.997 103.248Z" fill="#C2D4ED"/>
<path d="M139.119 125.723L86.4507 118.755C84.5697 132.972 92.5087 140.476 96.7134 142.45C113.91 145.08 147.202 149.981 142.798 148.547C138.395 147.114 138.511 132.734 139.119 125.723Z" fill="#4C6078"/>
<rect x="129.604" y="81.917" width="32.2561" height="4.21797" transform="rotate(7.53666 129.604 81.917)" fill="#3C576A" fill-opacity="0.34"/>
<rect x="129.825" y="94.7105" width="30.3587" height="4.21797" transform="rotate(7.53666 129.825 94.7105)" fill="#3C576A" fill-opacity="0.34"/>
<rect x="128.165" y="107.255" width="30.3587" height="4.21797" transform="rotate(7.53666 128.165 107.255)" fill="#3C576A" fill-opacity="0.34"/>
<rect x="122.744" y="119.302" width="32.2561" height="4.21797" transform="rotate(7.53666 122.744 119.302)" fill="#3C576A" fill-opacity="0.34"/>
</svg>
